<svg width="60" height="60" viewBox="0 0 60 60" fill="none" xmlns="http://www.w3.org/2000/svg">
<path fill-rule="evenodd" clip-rule="evenodd" d="M29.75 0C13.318 0 0 13.7699 0 30.7594C0 44.3473 8.52173 55.8782 20.3454 59.949C21.8338 60.2266 22.3707 59.2798 22.3707 58.4657C22.3707 57.7348 22.3468 55.798 22.3379 53.2353C14.0607 55.0918 12.3128 49.1089 12.3128 49.1089C10.9646 45.5562 9.0109 44.6094 9.0109 44.6094C6.31151 42.7005 9.21671 42.7436 9.21671 42.7436C12.2054 42.9595 13.7714 45.9139 13.7714 45.9139C16.426 50.6139 20.7391 49.257 22.4273 48.4705C22.6988 46.4814 23.4743 45.1245 24.3214 44.3565C17.7176 43.5825 10.7737 40.9426 10.7737 29.1526C10.7737 25.8004 11.934 23.0495 13.8281 20.9031C13.5268 20.1228 12.4977 16.9926 14.1233 12.7614C14.1233 12.7614 16.6199 11.9318 22.3021 15.9101C24.7288 15.2276 27.2321 14.8792 29.747 14.8739C32.262 14.8781 34.7654 15.2266 37.192 15.9101C42.8771 11.9287 45.3707 12.7614 45.3707 12.7614C46.9963 16.9926 45.9762 20.1228 45.666 20.9031C47.5749 23.0495 48.7203 25.7973 48.7203 29.1526C48.7203 40.9734 41.7705 43.5701 35.1428 44.3319C36.2017 45.2817 37.1562 47.1568 37.1562 50.0249C37.1562 54.1389 37.1204 57.4572 37.1204 58.4657C37.1204 59.2891 37.6513 60.2451 39.1695 59.9429C50.9872 55.8659 59.5 44.3442 59.5 30.7594C59.5 13.7699 46.182 0 29.75 0Z" fill="#6E5494"/>
</svg>
