<svg width="46" height="46" viewBox="0 0 46 46" fill="none" xmlns="http://www.w3.org/2000/svg">
<path d="M22.9975 11.4425C19.9316 11.4425 16.9913 12.6604 14.8233 14.8284C12.6554 16.9963 11.4375 19.9366 11.4375 23.0025C11.4375 26.0684 12.6554 29.0087 14.8233 31.1767C16.9913 33.3446 19.9316 34.5625 22.9975 34.5625C26.0634 34.5625 29.0037 33.3446 31.1717 31.1767C33.3396 29.0087 34.5575 26.0684 34.5575 23.0025C34.5575 19.9366 33.3396 16.9963 31.1717 14.8284C29.0037 12.6604 26.0634 11.4425 22.9975 11.4425ZM22.9975 30.51C21.0057 30.51 19.0955 29.7188 17.6871 28.3104C16.2787 26.902 15.4875 24.9918 15.4875 23C15.4875 21.0082 16.2787 19.098 17.6871 17.6896C19.0955 16.2812 21.0057 15.49 22.9975 15.49C24.9893 15.49 26.8995 16.2812 28.3079 17.6896C29.7163 19.098 30.5075 21.0082 30.5075 23C30.5075 24.9918 29.7163 26.902 28.3079 28.3104C26.8995 29.7188 24.9893 30.51 22.9975 30.51Z" fill="url(#paint0_linear_1_6)"/>
<path d="M35.015 13.7125C36.5034 13.7125 37.71 12.5059 37.71 11.0175C37.71 9.5291 36.5034 8.32251 35.015 8.32251C33.5266 8.32251 32.32 9.5291 32.32 11.0175C32.32 12.5059 33.5266 13.7125 35.015 13.7125Z" fill="url(#paint1_linear_1_6)"/>
<path d="M44.3325 8.2775C43.7538 6.78295 42.8693 5.4257 41.7358 4.29264C40.6023 3.15958 39.2448 2.27567 37.75 1.6975C36.0008 1.04089 34.1529 0.68585 32.285 0.647497C29.8775 0.542497 29.115 0.512497 23.01 0.512497C16.905 0.512497 16.1225 0.512497 13.735 0.647497C11.8685 0.683889 10.0219 1.039 8.275 1.6975C6.77984 2.275 5.42191 3.15867 4.28834 4.29182C3.15476 5.42496 2.27057 6.78256 1.6925 8.2775C1.03576 10.0265 0.681537 11.8746 0.645001 13.7425C0.537501 16.1475 0.505001 16.91 0.505001 23.0175C0.505001 29.1225 0.505001 29.9 0.645001 32.2925C0.682501 34.1625 1.035 36.0075 1.6925 37.76C2.2722 39.2544 3.15724 40.6114 4.29109 41.7444C5.42494 42.8774 6.78266 43.7614 8.2775 44.34C10.0211 45.023 11.8684 45.4034 13.74 45.465C16.1475 45.57 16.91 45.6025 23.015 45.6025C29.12 45.6025 29.9025 45.6025 32.29 45.465C34.1578 45.427 36.0056 45.0728 37.755 44.4175C39.2494 43.838 40.6066 42.9533 41.7399 41.8199C42.8733 40.6866 43.758 39.3294 44.3375 37.835C44.995 36.085 45.3475 34.24 45.385 32.37C45.4925 29.965 45.525 29.2025 45.525 23.095C45.525 16.9875 45.525 16.2125 45.385 13.82C45.3559 11.9257 44.9998 10.0506 44.3325 8.2775ZM41.2875 32.1075C41.2714 33.5483 41.0084 34.9756 40.51 36.3275C40.1346 37.2997 39.5598 38.1825 38.8227 38.9192C38.0856 39.6559 37.2024 40.2301 36.23 40.605C34.8931 41.1011 33.4809 41.3641 32.055 41.3825C29.68 41.4925 29.01 41.52 22.92 41.52C16.825 41.52 16.2025 41.52 13.7825 41.3825C12.3573 41.3651 10.9458 41.102 9.61 40.605C8.63422 40.2325 7.74751 39.6592 7.00723 38.9224C6.26695 38.1856 5.68959 37.3015 5.3125 36.3275C4.82112 34.9901 4.55828 33.5796 4.535 32.155C4.4275 29.78 4.4025 29.11 4.4025 23.02C4.4025 16.9275 4.4025 16.305 4.535 13.8825C4.55116 12.4426 4.81414 11.016 5.3125 9.665C6.075 7.6925 7.6375 6.14 9.61 5.385C10.9465 4.89035 12.3576 4.62741 13.7825 4.6075C16.16 4.5 16.8275 4.47 22.92 4.47C29.0125 4.47 29.6375 4.47 32.055 4.6075C33.481 4.62465 34.8934 4.88767 36.23 5.385C37.2023 5.76068 38.0854 6.3355 38.8224 7.07257C39.5595 7.80964 40.1343 8.69268 40.51 9.665C41.0014 11.0024 41.2642 12.4129 41.2875 13.8375C41.395 16.215 41.4225 16.8825 41.4225 22.975C41.4225 29.065 41.4225 29.72 41.315 32.11H41.2875V32.1075Z" fill="url(#paint2_linear_1_6)"/>
<defs>
<linearGradient id="paint0_linear_1_6" x1="18" y1="12" x2="28" y2="32.5" gradientUnits="userSpaceOnUse">
<stop stop-color="#833AB4"/>
<stop offset="0.239583" stop-color="#C13584"/>
<stop offset="0.505208" stop-color="#E1306C"/>
<stop offset="0.755208" stop-color="#FD1D1D"/>
<stop offset="1" stop-color="#F77737"/>
</linearGradient>
<linearGradient id="paint1_linear_1_6" x1="33" y1="10" x2="38" y2="12" gradientUnits="userSpaceOnUse">
<stop stop-color="#833AB4"/>
<stop offset="1" stop-color="#C13584"/>
</linearGradient>
<linearGradient id="paint2_linear_1_6" x1="19.5" y1="-0.5" x2="39.5" y2="42.5" gradientUnits="userSpaceOnUse">
<stop stop-color="#405DE6"/>
<stop offset="0.161458" stop-color="#833AB4"/>
<stop offset="0.348958" stop-color="#C13584"/>
<stop offset="0.505208" stop-color="#E1306C"/>
<stop offset="0.65625" stop-color="#FD1D1D"/>
<stop offset="0.796875" stop-color="#F77737"/>
<stop offset="0.947917" stop-color="#FFDC80"/>
</linearGradient>
</defs>
</svg>
